<svg width="32" height="33" viewBox="0 0 32 33" fill="none" xmlns="http://www.w3.org/2000/svg">
<path d="M16.07 18.5C17.1746 18.5 18.07 17.6046 18.07 16.5C18.07 15.3955 17.1746 14.5 16.07 14.5C14.9654 14.5 14.07 15.3955 14.07 16.5C14.07 17.6046 14.9654 18.5 16.07 18.5Z" stroke="black" stroke-width="1.33333" stroke-linecap="round" stroke-linejoin="round"/>
<path d="M14.2627 21.4141L14.6523 22.2904C14.7682 22.5513 14.9572 22.7729 15.1965 22.9284C15.4358 23.084 15.7151 23.1668 16.0005 23.1667C16.2859 23.1668 16.5652 23.084 16.8045 22.9284C17.0438 22.7729 17.2328 22.5513 17.3486 22.2904L17.7383 21.4141C17.877 21.1032 18.1103 20.8439 18.4049 20.6734C18.7015 20.5023 19.0445 20.4295 19.3849 20.4652L20.3383 20.5667C20.622 20.5967 20.9084 20.5438 21.1627 20.4143C21.417 20.2848 21.6283 20.0843 21.7709 19.8371C21.9136 19.5901 21.9817 19.3069 21.9667 19.022C21.9517 18.737 21.8543 18.4626 21.6864 18.2319L21.122 17.4563C20.921 17.1781 20.8136 16.8433 20.8153 16.5C20.8152 16.1578 20.9236 15.8243 21.1249 15.5474L21.6894 14.7719C21.8573 14.5412 21.9547 14.2668 21.9696 13.9818C21.9846 13.6969 21.9166 13.4137 21.7738 13.1667C21.6312 12.9195 21.42 12.719 21.1657 12.5895C20.9114 12.46 20.625 12.4071 20.3412 12.4371L19.3879 12.5386C19.0474 12.5743 18.7044 12.5015 18.4079 12.3304C18.1126 12.1589 17.8793 11.8983 17.7412 11.586L17.3486 10.7097C17.2328 10.4488 17.0438 10.2272 16.8045 10.0716C16.5652 9.9161 16.2859 9.83333 16.0005 9.83337C15.7151 9.83333 15.4358 9.9161 15.1965 10.0716C14.9572 10.2272 14.7682 10.4488 14.6523 10.7097L14.2627 11.586C14.1247 11.8983 13.8913 12.1589 13.596 12.3304C13.2995 12.5015 12.9565 12.5743 12.616 12.5386L11.6597 12.4371C11.376 12.4071 11.0896 12.46 10.8353 12.5895C10.581 12.719 10.3698 12.9195 10.2272 13.1667C10.0844 13.4137 10.0163 13.6969 10.0313 13.9818C10.0463 14.2668 10.1437 14.5412 10.3116 14.7719L10.876 15.5474C11.0773 15.8243 11.1857 16.1578 11.1857 16.5C11.1857 16.8423 11.0773 17.1758 10.876 17.4526L10.3116 18.2282C10.1437 18.4589 10.0463 18.7333 10.0313 19.0183C10.0163 19.3032 10.0844 19.5863 10.2272 19.8334C10.3699 20.0804 10.5812 20.2808 10.8354 20.4103C11.0897 20.5398 11.376 20.5928 11.6597 20.563L12.6131 20.4615C12.9535 20.4258 13.2966 20.4986 13.5931 20.6697C13.8894 20.8407 14.1239 21.1014 14.2627 21.4141Z" stroke="black" stroke-width="1.33333" stroke-linecap="round" stroke-linejoin="round"/>
</svg>
