<svg width="24" height="24" viewBox="0 0 24 24" fill="none" xmlns="http://www.w3.org/2000/svg">
<path fill-rule="evenodd" clip-rule="evenodd" d="M12 22.5C17.5228 22.5 22 18.0228 22 12.5C22 6.97715 17.5228 2.5 12 2.5C6.47715 2.5 2 6.97715 2 12.5C2 18.0228 6.47715 22.5 12 22.5ZM16.8071 10.0904C17.1332 9.64459 17.0361 9.01891 16.5904 8.69286C16.1446 8.36681 15.5189 8.46387 15.1929 8.90964L10.8166 14.8929L8.75809 12.5C8.39791 12.0813 7.76653 12.0339 7.34785 12.3941C6.92917 12.7543 6.88174 13.3856 7.24191 13.8043L10.1219 17.1522C10.3209 17.3835 10.6146 17.5113 10.9194 17.4992C11.2243 17.4872 11.507 17.3366 11.6871 17.0904L16.8071 10.0904Z" fill="#00C275"/>
</svg>
