<svg width="98" height="23" viewBox="0 0 98 23" fill="none" xmlns="http://www.w3.org/2000/svg">
<g clip-path="url(#clip0_1046_12791)">
<rect width="98" height="23" fill="#FDC408"/>
<path d="M35.4222 16.5053L35.6268 15.5379H36.2185V16.5053H37.0733V17.2627H36.1966V19.295C36.1966 19.36 36.2161 19.4125 36.255 19.4525C36.294 19.4925 36.3451 19.5125 36.4085 19.5125H37.1756V20.255H36.3062C36.0237 20.255 35.8045 20.175 35.6487 20.015C35.4928 19.855 35.4149 19.63 35.4149 19.34V17.2627H34.7793V16.5053H35.4222Z" fill="#100B1C"/>
<path d="M38.165 15.1554H38.9979V16.9027C39.2901 16.5878 39.6432 16.4303 40.0572 16.4303C40.5345 16.4303 40.9095 16.5753 41.1823 16.8652C41.455 17.1552 41.5914 17.5577 41.5914 18.0726V20.255H40.7585V18.3501C40.7585 17.9552 40.6879 17.6602 40.5467 17.4652C40.4103 17.2702 40.2009 17.1727 39.9184 17.1727C39.6456 17.1727 39.424 17.2677 39.2536 17.4577C39.0831 17.6477 38.9979 17.9027 38.9979 18.2226V20.255H38.165V15.1554Z" fill="#100B1C"/>
<path d="M42.3604 18.3801C42.3604 17.7702 42.5211 17.2927 42.8425 16.9477C43.164 16.6028 43.6096 16.4303 44.1795 16.4303C44.725 16.4303 45.1414 16.5953 45.4287 16.9252C45.7161 17.2552 45.8476 17.7152 45.8232 18.3051L45.8086 18.5601H43.2005C43.2249 18.8851 43.3223 19.1376 43.4927 19.3175C43.6681 19.4975 43.897 19.5875 44.1795 19.5875C44.4327 19.5875 44.647 19.53 44.8224 19.415C44.9977 19.295 45.1122 19.1326 45.1657 18.9276L45.8306 19.2725C45.7234 19.6075 45.5213 19.8675 45.2242 20.0525C44.932 20.2375 44.5788 20.33 44.1649 20.33C43.5999 20.33 43.1567 20.1575 42.8352 19.8125C42.5186 19.4675 42.3604 18.9901 42.3604 18.3801ZM44.9904 17.8627C44.9855 17.6477 44.9076 17.4802 44.7566 17.3602C44.6056 17.2352 44.4011 17.1727 44.1429 17.1727C43.9238 17.1727 43.7387 17.2327 43.5877 17.3527C43.4367 17.4677 43.3271 17.6377 43.259 17.8627H44.9904Z" fill="#100B1C"/>
<path d="M48.3102 16.5053H49.1065V16.8952C49.2429 16.7453 49.3914 16.6303 49.5522 16.5503C49.7178 16.4703 49.8882 16.4303 50.0636 16.4303C50.3314 16.4303 50.5652 16.4828 50.7649 16.5878C50.9695 16.6928 51.1302 16.8478 51.2471 17.0527C51.3737 16.8478 51.5393 16.6928 51.7439 16.5878C51.9484 16.4828 52.1627 16.4303 52.3868 16.4303C52.83 16.4303 53.1733 16.5703 53.4169 16.8503C53.6653 17.1302 53.7895 17.5227 53.7895 18.0276V20.255H52.9566V18.3051C52.9566 17.9502 52.8933 17.6727 52.7667 17.4727C52.64 17.2727 52.4671 17.1727 52.248 17.1727C51.7268 17.1727 51.4662 17.5302 51.4662 18.2451V20.255H50.6334V18.3051C50.6334 17.9502 50.5701 17.6727 50.4435 17.4727C50.3168 17.2727 50.1439 17.1727 49.9248 17.1727C49.4036 17.1727 49.143 17.5302 49.143 18.2451V20.255H48.3102V16.5053Z" fill="#100B1C"/>
<path d="M54.5531 18.3801C54.5531 17.7702 54.709 17.2927 55.0207 16.9477C55.3324 16.6028 55.7683 16.4303 56.3284 16.4303C56.8788 16.4303 57.3074 16.6028 57.6142 16.9477C57.9259 17.2927 58.0818 17.7702 58.0818 18.3801C58.0818 18.9951 57.9259 19.475 57.6142 19.82C57.3074 20.165 56.8788 20.335 56.3284 20.33C55.7683 20.335 55.3324 20.165 55.0207 19.82C54.709 19.475 54.5531 18.9951 54.5531 18.3801ZM55.4152 18.3801C55.4152 18.7501 55.4956 19.0401 55.6563 19.25C55.817 19.46 56.041 19.5675 56.3284 19.5725C56.6109 19.5675 56.8301 19.46 56.9859 19.25C57.1418 19.0401 57.2197 18.7501 57.2197 18.3801C57.2197 18.0052 57.1418 17.7127 56.9859 17.5027C56.8301 17.2927 56.6109 17.1877 56.3284 17.1877C56.041 17.1877 55.817 17.2927 55.6563 17.5027C55.4956 17.7127 55.4152 18.0052 55.4152 18.3801Z" fill="#100B1C"/>
<path d="M59.7582 16.5053V16.8952C59.8605 16.7603 60.0139 16.6503 60.2185 16.5653C60.4231 16.4753 60.6349 16.4303 60.8541 16.4303C61.3411 16.4303 61.7186 16.5703 61.9865 16.8503C62.2543 17.1302 62.3883 17.5227 62.3883 18.0276V20.255H61.5554V18.3051C61.5554 17.9152 61.4873 17.6302 61.3509 17.4502C61.2145 17.2652 61.0026 17.1727 60.7153 17.1727C60.4328 17.1727 60.2088 17.2702 60.0432 17.4652C59.8776 17.6552 59.7948 17.9152 59.7948 18.2451V20.255H58.9619V16.5053H59.7582Z" fill="#100B1C"/>
<path d="M63.1573 18.3801C63.1573 17.7702 63.318 17.2927 63.6394 16.9477C63.9609 16.6028 64.4065 16.4303 64.9764 16.4303C65.5219 16.4303 65.9383 16.5953 66.2256 16.9252C66.513 17.2552 66.6445 17.7152 66.6202 18.3051L66.6055 18.5601H63.9974C64.0218 18.8851 64.1192 19.1376 64.2896 19.3175C64.465 19.4975 64.6939 19.5875 64.9764 19.5875C65.2296 19.5875 65.4439 19.53 65.6193 19.415C65.7946 19.295 65.9091 19.1326 65.9626 18.9276L66.6275 19.2725C66.5203 19.6075 66.3182 19.8675 66.0211 20.0525C65.7289 20.2375 65.3758 20.33 64.9618 20.33C64.3968 20.33 63.9536 20.1575 63.6321 19.8125C63.3156 19.4675 63.1573 18.9901 63.1573 18.3801ZM65.7873 17.8627C65.7824 17.6477 65.7045 17.4802 65.5535 17.3602C65.4025 17.2352 65.198 17.1727 64.9398 17.1727C64.7207 17.1727 64.5356 17.2327 64.3846 17.3527C64.2336 17.4677 64.124 17.6377 64.0559 17.8627H65.7873Z" fill="#100B1C"/>
<path d="M70.5995 16.5053L68.6708 22.0698H67.7649L68.4078 20.2625L67.1 16.5053H67.9621L68.8534 19.1901L69.7374 16.5053H70.5995Z" fill="#100B1C"/>
<path d="M72.7548 19.1301C72.7548 18.8601 72.862 18.6301 73.0763 18.4401C73.2954 18.2451 73.5974 18.1051 73.9822 18.0201L74.4351 17.9227L75.0707 18.2151V17.8702C75.0707 17.6452 75.0098 17.4727 74.8881 17.3527C74.7663 17.2327 74.591 17.1727 74.3621 17.1727C74.1526 17.1727 73.97 17.2277 73.8141 17.3377C73.6583 17.4477 73.5365 17.6052 73.4488 17.8102L72.8498 17.3302C72.9715 17.0502 73.1664 16.8303 73.4342 16.6703C73.7021 16.5103 74.0089 16.4303 74.3548 16.4303C74.8369 16.4303 75.2193 16.5628 75.5017 16.8278C75.7842 17.0927 75.9255 17.4527 75.9255 17.9077V19.4375C75.9255 19.5725 75.9328 19.71 75.9474 19.85C75.962 19.985 75.9815 20.12 76.0058 20.255H75.1218L75.0926 19.94C74.7955 20.2 74.4741 20.33 74.1283 20.33C73.6948 20.33 73.3563 20.2275 73.1128 20.0225C72.8741 19.8175 72.7548 19.52 72.7548 19.1301ZM73.5877 19.1975C73.5877 19.4575 73.8093 19.5875 74.2525 19.5875C74.3645 19.5875 74.4838 19.56 74.6104 19.505C74.7419 19.445 74.8515 19.375 74.9392 19.295C75.0269 19.215 75.0707 19.1401 75.0707 19.0701V18.9501L74.4351 18.6501L74.099 18.7251C73.9578 18.7601 73.836 18.8226 73.7338 18.9126C73.6364 19.0026 73.5877 19.0976 73.5877 19.1975Z" fill="#100B1C"/>
<path d="M77.062 16.5053H77.8656V16.9102C77.9971 16.7603 78.153 16.6428 78.3332 16.5578C78.5134 16.4728 78.7034 16.4303 78.903 16.4303C79.4437 16.4303 79.8625 16.5978 80.1596 16.9327C80.4616 17.2677 80.6126 17.7502 80.6126 18.3801C80.6126 19.0101 80.464 19.4925 80.1669 19.8275C79.8747 20.1575 79.4631 20.3225 78.9323 20.3225C78.5232 20.3225 78.1773 20.1825 77.8949 19.9025V21.4549H77.062V16.5053ZM77.9022 18.5151C77.9022 18.8301 77.9874 19.0876 78.1579 19.2875C78.3283 19.4875 78.5499 19.5875 78.8227 19.5875C79.1295 19.5875 79.3657 19.4875 79.5313 19.2875C79.7018 19.0826 79.787 18.7801 79.787 18.3801C79.787 17.9802 79.7018 17.6802 79.5313 17.4802C79.3609 17.2752 79.1173 17.1727 78.8008 17.1727C78.5378 17.1727 78.321 17.2727 78.1506 17.4727C77.985 17.6727 77.9022 17.9302 77.9022 18.2451V18.5151Z" fill="#100B1C"/>
<path d="M81.4925 16.5053H82.2961V16.9102C82.4276 16.7603 82.5835 16.6428 82.7637 16.5578C82.9439 16.4728 83.1338 16.4303 83.3335 16.4303C83.8742 16.4303 84.293 16.5978 84.5901 16.9327C84.8921 17.2677 85.0431 17.7502 85.0431 18.3801C85.0431 19.0101 84.8945 19.4925 84.5974 19.8275C84.3052 20.1575 83.8936 20.3225 83.3628 20.3225C82.9536 20.3225 82.6078 20.1825 82.3254 19.9025V21.4549H81.4925V16.5053ZM82.3327 18.5151C82.3327 18.8301 82.4179 19.0876 82.5884 19.2875C82.7588 19.4875 82.9804 19.5875 83.2532 19.5875C83.56 19.5875 83.7962 19.4875 83.9618 19.2875C84.1323 19.0826 84.2175 18.7801 84.2175 18.3801C84.2175 17.9802 84.1323 17.6802 83.9618 17.4802C83.7914 17.2752 83.5478 17.1727 83.2313 17.1727C82.9683 17.1727 82.7515 17.2727 82.5811 17.4727C82.4155 17.6727 82.3327 17.9302 82.3327 18.2451V18.5151Z" fill="#100B1C"/>
<path d="M28.5329 12.081L30.5558 7.29286L32.5779 12.081H34.0696L37.4516 3.84652H35.2795L33.3075 8.65171L31.3021 3.84652H29.8095L27.7875 8.65171L25.8313 3.84652H23.6592L27.0412 12.081H28.5329ZM41.2965 12.2509C42.5138 12.2509 43.5306 11.8378 44.3467 11.0116C45.1628 10.1854 45.5717 9.17216 45.5733 7.97188C45.5733 6.77217 45.1644 5.75619 44.3467 4.92401C43.529 4.09184 42.5122 3.67603 41.2965 3.67657C40.0792 3.67657 39.0625 4.09239 38.2463 4.92401C37.4302 5.75564 37.0208 6.7716 37.0182 7.97188C37.0182 9.17216 37.427 10.1854 38.2448 11.0116C39.0625 11.8378 40.0792 12.2509 41.2949 12.2509H41.2965ZM41.2965 10.2179C40.6783 10.2179 40.17 10.0027 39.7714 9.57225C39.5744 9.35943 39.4203 9.10889 39.3178 8.83492C39.2154 8.56104 39.1666 8.26918 39.1744 7.97594C39.1667 7.68286 39.2155 7.39109 39.318 7.11737C39.4204 6.84356 39.5745 6.59318 39.7714 6.38045C40.1694 5.93861 40.6778 5.71769 41.2965 5.71769C41.9152 5.71769 42.4236 5.93455 42.8216 6.36825C43.2187 6.80193 43.4331 7.37832 43.4186 7.97269C43.4264 8.26593 43.3777 8.55778 43.2752 8.83167C43.1727 9.10564 43.0186 9.35618 42.8216 9.569C42.4241 9.99942 41.9158 10.2147 41.2965 10.2147V10.2179ZM50.4859 12.2509C51.7032 12.2509 52.7197 11.8378 53.5353 11.0116C54.3509 10.1854 54.7601 9.17216 54.7627 7.97188C54.7627 6.77217 54.3536 5.75619 53.5353 4.92401C52.717 4.09184 51.7006 3.67603 50.4859 3.67657C49.2686 3.67657 48.2519 4.09239 47.4358 4.92401C46.6196 5.75564 46.2108 6.7716 46.2092 7.97188C46.2092 9.17216 46.618 10.1854 47.4358 11.0116C48.2535 11.8378 49.2702 12.2509 50.4859 12.2509ZM50.4859 10.2179C49.8667 10.2179 49.3584 10.0027 48.9609 9.57225C48.7636 9.35952 48.6095 9.10897 48.507 8.83508C48.4046 8.56112 48.3559 8.26918 48.3638 7.97594C48.356 7.68286 48.4046 7.39101 48.5071 7.11729C48.6096 6.84348 48.7637 6.5931 48.9609 6.38045C49.3588 5.93861 49.8673 5.71769 50.4859 5.71769C51.1046 5.71769 51.613 5.93455 52.011 6.36825C52.4078 6.80209 52.622 7.3784 52.6072 7.97269C52.6152 8.26585 52.5666 8.5577 52.4643 8.83167C52.3619 9.10555 52.2079 9.3561 52.011 9.569C51.6125 9.99942 51.1042 10.2147 50.4859 10.2147V10.2179ZM57.7327 12.0883V0.026123H55.5772V12.081L57.7327 12.0883ZM61.7268 12.2582C62.6112 12.2582 63.3654 12.0235 63.9894 11.554C64.6134 11.0846 64.9257 10.4703 64.9262 9.7113C64.9262 9.17947 64.7939 8.72953 64.5293 8.3614C64.2806 8.00831 63.9462 7.728 63.5591 7.5482C63.1842 7.37515 62.7995 7.22495 62.4072 7.0985C62.0717 6.99449 61.7447 6.86373 61.4291 6.70735C61.1639 6.57155 61.0321 6.4081 61.0321 6.21943C61.0321 6.03077 61.1369 5.85431 61.3497 5.73152C61.5903 5.60545 61.8584 5.54416 62.1285 5.55343C62.6483 5.55343 63.1622 5.74019 63.6703 6.11372L64.6777 4.50847C64.4015 4.28186 64.0045 4.08669 63.4869 3.92297C62.9934 3.76364 62.4793 3.6814 61.9618 3.67901C61.133 3.67901 60.4121 3.91674 59.7992 4.39218C59.1863 4.86763 58.8796 5.48458 58.8791 6.24302C58.8668 6.69328 59.0071 7.13404 59.276 7.49046C59.5314 7.82826 59.8686 8.09174 60.2541 8.25487C60.6405 8.41751 61.0244 8.56169 61.4061 8.68749C61.7422 8.79085 62.0664 8.93129 62.373 9.10629C62.6376 9.2651 62.77 9.45759 62.77 9.68366C62.77 9.88777 62.67 10.0545 62.4715 10.1846C62.2518 10.3205 61.9984 10.3882 61.7419 10.3798C60.8575 10.3798 60.1226 10.1087 59.5372 9.56656L58.4948 11.1474C59.4246 11.8687 60.5604 12.2564 61.7268 12.2509V12.2582ZM69.6793 12.2582C70.8966 12.2582 71.9134 11.8451 72.7295 11.0189C73.5456 10.1927 73.9545 9.17947 73.9561 7.97919C73.9561 6.77948 73.5472 5.76351 72.7295 4.93133C71.9118 4.09916 70.895 3.68091 69.6793 3.67657C68.462 3.67657 67.4455 4.09239 66.6299 4.92401C65.8144 5.75564 65.4052 6.7716 65.4026 7.97188C65.4026 9.17216 65.8117 10.1854 66.6299 11.0116C67.4482 11.8378 68.4647 12.2509 69.6793 12.2509V12.2582ZM69.6793 10.2252C69.0611 10.2252 68.5528 10.01 68.1542 9.57957C67.9573 9.36667 67.8033 9.11613 67.701 8.84224C67.5987 8.56827 67.5501 8.27642 67.558 7.98326C67.5502 7.69027 67.5988 7.39849 67.7012 7.12477C67.8035 6.85096 67.9574 6.60058 68.1542 6.38777C68.3468 6.17129 68.5828 6 68.846 5.88561C69.1092 5.77122 69.3935 5.71644 69.6793 5.72501C70.2986 5.72501 70.8069 5.94187 71.2044 6.37557C71.6018 6.80908 71.8164 7.38556 71.8014 7.98001C71.8094 8.27325 71.7607 8.56518 71.6583 8.83915C71.5558 9.11304 71.4016 9.36358 71.2044 9.57631C70.8069 10.0067 70.2986 10.222 69.6793 10.222V10.2252ZM78.9021 12.2582C80.4272 12.2582 81.6426 11.6413 82.5485 10.4074L80.8908 9.13393C80.682 9.44929 80.4081 9.71317 80.0874 9.90647C79.75 10.1162 79.3626 10.2252 78.968 10.2212C78.3162 10.2212 77.7827 10.0089 77.3683 9.58445C76.9539 9.15996 76.7466 8.62487 76.7466 7.97919C76.7403 7.6827 76.7919 7.38792 76.8983 7.11233C77.0055 6.83665 77.165 6.58586 77.3683 6.37476C77.5683 6.16193 77.8097 5.99415 78.0764 5.88214C78.3432 5.77013 78.6306 5.71634 78.9188 5.7242C79.6698 5.7242 80.2882 6.05246 80.7749 6.70898L82.3 5.33386C81.8927 4.81768 81.3775 4.40174 80.7924 4.11674C80.2073 3.83173 79.5666 3.68493 78.9188 3.68714C77.6914 3.68714 76.6633 4.10296 75.8352 4.93458C75.4333 5.32677 75.1153 5.80018 74.9012 6.32483C74.6873 6.8495 74.5819 7.41394 74.592 7.98245C74.592 9.18273 75.0009 10.196 75.8186 11.0222C76.6363 11.8484 77.6644 12.2615 78.9021 12.2615V12.2582ZM85.3533 12.0883V8.5159L88.7513 12.081H91.6522L87.2262 7.54739L91.1552 3.84652H88.1217L85.3533 6.51219V0.026123H83.1979V6.05354V12.081L85.3533 12.0883ZM94.8008 12.2582C95.6844 12.2582 96.4386 12.0235 97.0634 11.554C97.6882 11.0846 98.0002 10.4703 98.0002 9.7113C98.0002 9.17947 97.8676 8.72953 97.6033 8.3614C97.354 8.00871 97.0197 7.7284 96.6331 7.5482C96.2584 7.37515 95.8734 7.22495 95.4812 7.0985C95.1453 6.99449 94.8182 6.86373 94.5031 6.70735C94.2379 6.57155 94.1061 6.4081 94.1061 6.21943C94.1061 6.03077 94.2109 5.85431 94.4237 5.73152C94.6642 5.60521 94.9326 5.54391 95.2025 5.55343C95.7217 5.55343 96.2354 5.74019 96.7443 6.11372L97.7517 4.50847C97.4754 4.28186 97.0785 4.08669 96.5609 3.92297C96.0671 3.76364 95.5534 3.6814 95.0358 3.67901C94.2069 3.67901 93.4861 3.91674 92.8724 4.39218C92.2587 4.86763 91.9538 5.48377 91.9562 6.24058C91.9443 6.69085 92.0848 7.13143 92.3532 7.48802C92.6088 7.82599 92.9454 8.08946 93.3313 8.25243C93.7179 8.41507 94.1021 8.55925 94.4832 8.68505C94.819 8.78922 95.143 8.93047 95.4494 9.10629C95.7138 9.2651 95.8464 9.45759 95.8464 9.68366C95.8464 9.88801 95.7471 10.055 95.5478 10.1846C95.3287 10.3205 95.0755 10.3883 94.819 10.3798C93.9346 10.3798 93.1995 10.1087 92.6144 9.56656L91.5696 11.1458C92.5001 11.8672 93.6353 12.255 94.8024 12.2493L94.8008 12.2582Z" fill="#100B1C"/>
<path fill-rule="evenodd" clip-rule="evenodd" d="M9.08132 20.7917C14.0887 20.7917 18.148 16.6248 18.148 11.4846C18.148 10.1721 17.8833 8.92297 17.4057 7.7905C16.9408 8.02486 16.3868 8.19752 15.8006 8.3028L15.7536 8.31087L15.7602 8.32515C16.6453 10.1054 16.7134 12.1295 16.0315 14.2877L16.002 14.3808C15.5601 15.7408 14.8553 16.7321 13.9564 17.3379C13.2015 17.8524 12.2951 18.078 11.3953 17.9754C10.5344 17.8748 9.57281 17.2616 8.86322 16.3441C8.823 16.2895 8.78285 16.2343 8.74264 16.1784L8.7336 16.166L8.71671 16.1828C7.54832 17.3156 5.92596 17.7811 4.58213 17.3466L4.53872 17.3323C2.93022 16.7886 2.09221 15.1176 2.40692 12.7341C2.5053 11.9609 2.67818 11.1996 2.92299 10.4616L2.94168 10.4064H2.91696C2.00057 10.3052 1.24576 9.98432 0.642874 9.49147L0.609113 9.46416C0.499222 9.37276 0.395079 9.27453 0.297242 9.17007C0.112742 9.91008 0.0146484 10.6856 0.0146484 11.4846C0.0146484 16.6248 4.07393 20.7917 9.08132 20.7917ZM0.655943 8.03989C1.98987 4.60504 5.25944 2.17761 9.08132 2.17761C12.4718 2.17761 15.4277 4.088 16.983 6.91737C16.5174 7.15077 15.9044 7.31319 15.255 7.39284L15.2068 7.39843L15.1827 7.36367C14.8991 6.96455 14.582 6.59192 14.2349 6.25011L14.2217 6.23707C14.1855 6.20293 14.1306 6.15265 14.0595 6.0912L14.0076 6.04713C13.8318 5.89699 13.6487 5.75612 13.459 5.62505C13.147 5.40177 12.8074 5.22245 12.4492 5.09186C11.7384 4.84854 11.0957 4.95468 10.6719 5.53815L10.6671 5.54436L10.6544 5.5636C10.6162 5.62414 10.5843 5.68863 10.5591 5.75602C10.3126 6.39908 10.5591 7.12966 11.4942 7.7032C11.6751 7.81342 11.863 7.91089 12.0567 7.99493L12.114 8.01976C12.8483 8.33012 13.7803 8.45922 14.7112 8.42384H14.716L14.7269 8.44246C15.6758 10.0886 15.7723 11.9861 15.094 14.0723C14.7172 15.2306 14.1427 16.0381 13.4319 16.5179C12.8635 16.9063 12.1808 17.0772 11.5026 17.0009C10.9124 16.932 10.1727 16.4596 9.612 15.7352L9.58909 15.7048C9.52802 15.6249 9.46972 15.5422 9.41425 15.4565L9.39436 15.4261L9.42933 15.3814C9.66771 15.0666 9.88408 14.7347 10.0768 14.3883C10.4674 13.6885 10.7624 12.9366 10.9534 12.1537C11.2102 11.1072 11.2006 10.3536 10.9323 9.83472C10.6912 9.37353 10.3005 9.16187 9.83326 9.1178C9.34432 9.07125 8.84392 9.30401 8.46652 9.80058C8.05656 10.3474 7.80033 11.1935 7.72015 12.3635L7.71351 12.4616V12.5081C7.65534 13.4631 7.83047 14.4179 8.22295 15.2852L8.22838 15.2964L8.20969 15.3175C7.26376 16.3361 5.89461 16.7575 4.83775 16.4C3.70312 16.0164 3.09963 14.8135 3.35586 12.8706L3.36611 12.8024C3.47083 11.9925 3.66834 11.1982 3.95452 10.4362V10.43H3.99974C4.52133 10.3923 5.03875 10.308 5.54614 10.178C6.1767 10.0134 6.78447 9.76707 7.3548 9.44492C8.191 8.96573 8.76555 8.38163 8.94883 7.66285C9.09834 7.0769 8.9428 6.59584 8.59132 6.27431C8.5086 6.19895 8.41702 6.13452 8.31881 6.08251C8.27112 6.05639 8.22157 6.03418 8.1705 6.0161L8.15905 6.01237L8.12227 6.00244C7.29993 5.78457 6.03508 6.22342 4.98727 7.16938L4.94748 7.20538C4.28373 7.82552 3.74231 8.57157 3.35284 9.40271L3.33174 9.4474H3.31366C3.08563 9.43657 2.85871 9.40814 2.63481 9.36236C2.11546 9.26485 1.62743 9.03717 1.21381 8.69944C1.03996 8.55602 0.885825 8.38897 0.755614 8.20287C0.719035 8.15079 0.685743 8.09635 0.655943 8.03989ZM12.4335 7.0589C12.87 7.24449 13.409 7.35063 13.9769 7.38663L14.0119 7.39408L13.9648 7.34194C13.8587 7.22463 13.7472 7.10979 13.6302 6.9962L13.5742 6.94158L13.5416 6.91241L13.4982 6.87516L13.3975 6.79075C13.2504 6.67095 13.09 6.55053 12.9224 6.43942C12.679 6.27123 12.4156 6.13585 12.1387 6.03658C11.792 5.92237 11.5816 5.94844 11.4436 6.11293V6.11852C11.4187 6.18139 11.4187 6.25178 11.4436 6.31466C11.4996 6.46674 11.6594 6.64364 11.9819 6.8342C12.1276 6.91906 12.2784 6.99412 12.4335 7.0589ZM5.64803 8.00238C5.19737 8.42435 4.81389 8.91656 4.51159 9.46105L4.4929 9.49954H4.49712C4.76824 9.4601 5.03727 9.40666 5.30318 9.3394L5.35563 9.32636C5.89581 9.17995 6.41568 8.96323 6.90263 8.68144C7.52421 8.31646 7.9197 7.90493 8.02099 7.49836C8.07464 7.27925 8.04209 7.17559 7.95407 7.09303C7.93134 7.07202 7.90626 7.05389 7.87931 7.03903L7.87087 7.03469L7.83361 7.02464C7.64852 6.98119 7.36806 7.02227 7.01658 7.14642C6.50961 7.33509 6.0443 7.6261 5.64803 8.00238ZM9.22193 13.9172L9.25328 13.8632C9.60905 13.2424 9.87854 12.5734 10.0539 11.8756C10.2637 11.0426 10.2571 10.5194 10.1178 10.2581C10.0497 10.1296 9.9472 10.0749 9.76634 10.0582C9.60296 10.0458 9.41486 10.1296 9.23098 10.3685C8.93375 10.754 8.72395 11.4492 8.66004 12.492C8.61802 13.1193 8.69754 13.7489 8.89396 14.3442L8.91386 14.4026L8.93496 14.3721C9.03305 14.2289 9.12867 14.0773 9.22193 13.9172Z" fill="#100B1C"/>
</g>
<defs>
<clipPath id="clip0_1046_12791">
<rect width="98" height="23" fill="white"/>
</clipPath>
</defs>
</svg>
